<svg xmlns="http://www.w3.org/2000/svg" viewBox="0 0 800 520" fill="none" role="img" aria-labelledby="t d">
  <title id="t">Illustration of warehouse pallet racking</title>
  <desc id="d">Stylized distribution center aisle with pallet racks and boxes. No company logos or equipment brands.</desc>
  <defs>
    <linearGradient id="floor" x1="0" y1="0" x2="0" y2="1">
      <stop offset="0%" stop-color="#e2e8f0"/>
      <stop offset="100%" stop-color="#cbd5e1"/>
    </linearGradient>
    <linearGradient id="rack" x1="0" y1="0" x2="1" y2="0">
      <stop offset="0%" stop-color="#ea580c"/>
      <stop offset="100%" stop-color="#f97316"/>
    </linearGradient>
    <filter id="f" x="-4%" y="-4%" width="108%" height="108%">
      <feDropShadow dx="0" dy="4" stdDeviation="6" flood-color="#0f172a" flood-opacity="0.12"/>
    </filter>
  </defs>
  <rect width="800" height="520" fill="#f1f5f9"/>
  <rect y="380" width="800" height="140" fill="url(#floor)"/>
  <g opacity="0.35">
    <rect x="60" y="40" width="680" height="24" rx="8" fill="#cbd5e1"/>
    <rect x="60" y="72" width="520" height="16" rx="6" fill="#e2e8f0"/>
  </g>
  <g filter="url(#f)">
    <g transform="translate(80 120)">
      <rect x="0" y="0" width="28" height="260" rx="4" fill="url(#rack)"/>
      <rect x="240" y="0" width="28" height="260" rx="4" fill="url(#rack)"/>
      <rect x="0" y="0" width="268" height="18" rx="4" fill="#9a3412" opacity="0.9"/>
      <rect x="0" y="78" width="268" height="18" rx="4" fill="#9a3412" opacity="0.9"/>
      <rect x="0" y="156" width="268" height="18" rx="4" fill="#9a3412" opacity="0.9"/>
      <rect x="36" y="24" width="88" height="46" rx="6" fill="#fef3c7" stroke="#f59e0b" stroke-width="2"/>
      <rect x="140" y="24" width="88" height="46" rx="6" fill="#dbeafe" stroke="#3b82f6" stroke-width="2"/>
      <rect x="36" y="102" width="88" height="46" rx="6" fill="#e0e7ff" stroke="#6366f1" stroke-width="2"/>
      <rect x="140" y="102" width="88" height="46" rx="6" fill="#fef3c7" stroke="#f59e0b" stroke-width="2"/>
      <rect x="36" y="180" width="88" height="46" rx="6" fill="#dbeafe" stroke="#3b82f6" stroke-width="2"/>
      <rect x="140" y="180" width="88" height="46" rx="6" fill="#e0e7ff" stroke="#6366f1" stroke-width="2"/>
    </g>
    <g transform="translate(420 140)">
      <rect x="0" y="0" width="28" height="240" rx="4" fill="url(#rack)" opacity="0.92"/>
      <rect x="220" y="0" width="28" height="240" rx="4" fill="url(#rack)" opacity="0.92"/>
      <rect x="0" y="0" width="248" height="18" rx="4" fill="#9a3412" opacity="0.88"/>
      <rect x="0" y="86" width="248" height="18" rx="4" fill="#9a3412" opacity="0.88"/>
      <rect x="0" y="172" width="248" height="18" rx="4" fill="#9a3412" opacity="0.88"/>
      <rect x="34" y="26" width="76" height="44" rx="6" fill="#fef3c7" stroke="#f59e0b" stroke-width="2"/>
      <rect x="124" y="26" width="76" height="44" rx="6" fill="#dbeafe" stroke="#3b82f6" stroke-width="2"/>
      <rect x="34" y="112" width="76" height="44" rx="6" fill="#e0e7ff" stroke="#6366f1" stroke-width="2"/>
    </g>
  </g>
</svg>
