<svg xmlns="http://www.w3.org/2000/svg" viewBox="0 0 800 520" fill="none" role="img" aria-labelledby="t d">
  <title id="t">Illustration of a refrigerated trailer rear</title>
  <desc id="d">Stylized generic double doors on a temperature-controlled trailer. No manufacturer or company branding.</desc>
  <defs>
    <linearGradient id="door" x1="0" y1="0" x2="0" y2="1">
      <stop offset="0%" stop-color="#f1f5f9"/>
      <stop offset="55%" stop-color="#cbd5e1"/>
      <stop offset="100%" stop-color="#94a3b8"/>
    </linearGradient>
    <linearGradient id="frame" x1="0" y1="0" x2="1" y2="0">
      <stop offset="0%" stop-color="#1e40af"/>
      <stop offset="100%" stop-color="#2563eb"/>
    </linearGradient>
    <filter id="s" x="-5%" y="-5%" width="110%" height="110%">
      <feDropShadow dx="0" dy="6" stdDeviation="8" flood-color="#1e3a8a" flood-opacity="0.22"/>
    </filter>
  </defs>
  <rect width="800" height="520" fill="#f8fafc"/>
  <rect x="72" y="64" width="656" height="392" rx="18" fill="url(#frame)" opacity="0.12"/>
  <g filter="url(#s)">
    <rect x="120" y="88" width="560" height="344" rx="14" fill="#334155"/>
    <rect x="136" y="104" width="248" height="312" rx="8" fill="url(#door)" stroke="#64748b" stroke-width="3"/>
    <rect x="416" y="104" width="248" height="312" rx="8" fill="url(#door)" stroke="#64748b" stroke-width="3"/>
    <path stroke="#475569" stroke-width="4" stroke-linecap="round" d="M400 120v280"/>
    <rect x="168" y="136" width="184" height="12" rx="4" fill="#e2e8f0" opacity="0.85"/>
    <rect x="448" y="136" width="184" height="12" rx="4" fill="#e2e8f0" opacity="0.85"/>
    <circle cx="212" cy="260" r="10" fill="#64748b"/>
    <circle cx="588" cy="260" r="10" fill="#64748b"/>
  </g>
  <rect x="96" y="420" width="608" height="36" rx="10" fill="#0f172a" opacity="0.85"/>
  <rect x="120" y="428" width="120" height="20" rx="6" fill="#1e293b"/>
  <rect x="560" y="428" width="120" height="20" rx="6" fill="#1e293b"/>
</svg>
