<svg xmlns="http://www.w3.org/2000/svg" viewBox="0 0 800 520" fill="none" role="img" aria-labelledby="t d">
  <title id="t">Illustration of stacked shipping pallets</title>
  <desc id="d">Stylized wooden pallets and boxed freight. No carrier or retail branding.</desc>
  <defs>
    <linearGradient id="bg" x1="0" y1="0" x2="1" y2="1">
      <stop offset="0%" stop-color="#eff6ff"/>
      <stop offset="100%" stop-color="#fffbeb"/>
    </linearGradient>
    <linearGradient id="pallet" x1="0" y1="0" x2="0" y2="1">
      <stop offset="0%" stop-color="#d4a574"/>
      <stop offset="100%" stop-color="#92400e"/>
    </linearGradient>
    <filter id="sd" x="-6%" y="-6%" width="112%" height="112%">
      <feDropShadow dx="0" dy="6" stdDeviation="8" flood-color="#0f172a" flood-opacity="0.15"/>
    </filter>
  </defs>
  <rect width="800" height="520" fill="url(#bg)"/>
  <g filter="url(#sd)" transform="translate(400 300)">
    <g transform="translate(-200 40)">
      <path fill="url(#pallet)" d="M0 20h200v24H0z"/>
      <path fill="#a16207" d="M16 44h168v10H16z"/>
      <rect x="20" y="-64" width="160" height="84" rx="8" fill="#f8fafc" stroke="#94a3b8" stroke-width="3"/>
      <rect x="36" y="-48" width="128" height="52" rx="6" fill="#dbeafe" opacity="0.9"/>
    </g>
    <g transform="translate(20 -20)">
      <path fill="url(#pallet)" d="M0 20h200v24H0z"/>
      <path fill="#a16207" d="M16 44h168v10H16z"/>
      <rect x="20" y="-72" width="160" height="92" rx="8" fill="#f8fafc" stroke="#94a3b8" stroke-width="3"/>
      <rect x="36" y="-56" width="128" height="60" rx="6" fill="#fef3c7" opacity="0.95"/>
    </g>
    <g transform="translate(-100 -100)">
      <path fill="url(#pallet)" d="M0 20h200v24H0z"/>
      <path fill="#a16207" d="M16 44h168v10H16z"/>
      <rect x="16" y="-56" width="168" height="76" rx="8" fill="#f8fafc" stroke="#94a3b8" stroke-width="3"/>
      <rect x="32" y="-40" width="136" height="44" rx="6" fill="#e0e7ff" opacity="0.95"/>
    </g>
  </g>
</svg>
